{
	"asset":{
		"generator":"Khronos glTF Blender I/O v4.0.43",
		"version":"2.0"
	},
	"scene":0,
	"scenes":[
		{
			"name":"Scene",
			"nodes":[
				3
			]
		}
	],
	"nodes":[
		{
			"mesh":0,
			"name":"Object_2",
			"scale":[
				2.2887728214263916,
				2.2887728214263916,
				2.2887728214263916
			]
		},
		{
			"mesh":1,
			"name":"Object_3"
		},
		{
			"children":[
				0,
				1
			],
			"name":"Untitled.obj.cleaner.materialmerger.gles"
		},
		{
			"children":[
				2
			],
			"name":"Sketchfab_model",
			"rotation":[
				-0.70710688829422,
				0,
				0,
				0.7071066498756409
			],
			"scale":[
				1.2982430458068848,
				1.2982431650161743,
				1.2982431650161743
			]
		}
	],
	"materials":[
		{
			"alphaMode":"BLEND",
			"doubleSided":true,
			"name":"Tow_body",
			"normalTexture":{
				"index":0
			},
			"pbrMetallicRoughness":{
				"baseColorTexture":{
					"index":1
				},
				"metallicRoughnessTexture":{
					"index":2
				}
			}
		}
	],
	"meshes":[
		{
			"name":"Object_0",
			"primitives":[
				{
					"attributes":{
						"POSITION":0,
						"NORMAL":1,
						"TEXCOORD_0":2
					},
					"indices":3,
					"material":0
				}
			]
		},
		{
			"name":"Object_1",
			"primitives":[
				{
					"attributes":{
						"POSITION":4,
						"NORMAL":5,
						"TEXCOORD_0":6
					},
					"indices":7,
					"material":0
				}
			]
		}
	],
	"textures":[
		{
			"sampler":0,
			"source":0
		},
		{
			"sampler":0,
			"source":1
		},
		{
			"sampler":0,
			"source":2
		}
	],
	"images":[
		{
			"mimeType":"image/png",
			"name":"Tow_body_normal",
			"uri":"Tow_body_normal.png"
		},
		{
			"mimeType":"image/png",
			"name":"Tow_body_baseColor",
			"uri":"Tow_body_baseColor.png"
		},
		{
			"mimeType":"image/png",
			"name":"Tow_body_metallicRoughness",
			"uri":"Tow_body_metallicRoughness.png"
		}
	],
	"accessors":[
		{
			"bufferView":0,
			"componentType":5126,
			"count":66318,
			"max":[
				1.4833799600601196,
				4.759490013122559,
				3.464900016784668
			],
			"min":[
				-1.4833799600601196,
				-3.848489999771118,
				-0.900833010673523
			],
			"type":"VEC3"
		},
		{
			"bufferView":1,
			"componentType":5126,
			"count":66318,
			"type":"VEC3"
		},
		{
			"bufferView":2,
			"componentType":5126,
			"count":66318,
			"type":"VEC2"
		},
		{
			"bufferView":3,
			"componentType":5125,
			"count":306687,
			"type":"SCALAR"
		},
		{
			"bufferView":4,
			"componentType":5126,
			"count":34163,
			"max":[
				1.4833799600601196,
				4.754280090332031,
				3.415800094604492
			],
			"min":[
				-1.4768500328063965,
				-3.4002699851989746,
				-0.900833010673523
			],
			"type":"VEC3"
		},
		{
			"bufferView":5,
			"componentType":5126,
			"count":34163,
			"type":"VEC3"
		},
		{
			"bufferView":6,
			"componentType":5126,
			"count":34163,
			"type":"VEC2"
		},
		{
			"bufferView":7,
			"componentType":5123,
			"count":133650,
			"type":"SCALAR"
		}
	],
	"bufferViews":[
		{
			"buffer":0,
			"byteLength":795816,
			"byteOffset":0,
			"target":34962
		},
		{
			"buffer":0,
			"byteLength":795816,
			"byteOffset":795816,
			"target":34962
		},
		{
			"buffer":0,
			"byteLength":530544,
			"byteOffset":1591632,
			"target":34962
		},
		{
			"buffer":0,
			"byteLength":1226748,
			"byteOffset":2122176,
			"target":34963
		},
		{
			"buffer":0,
			"byteLength":409956,
			"byteOffset":3348924,
			"target":34962
		},
		{
			"buffer":0,
			"byteLength":409956,
			"byteOffset":3758880,
			"target":34962
		},
		{
			"buffer":0,
			"byteLength":273304,
			"byteOffset":4168836,
			"target":34962
		},
		{
			"buffer":0,
			"byteLength":267300,
			"byteOffset":4442140,
			"target":34963
		}
	],
	"samplers":[
		{
			"magFilter":9729,
			"minFilter":9987
		}
	],
	"buffers":[
		{
			"byteLength":4709440,
			"uri":"tow_boat.bin"
		}
	]
}
